<svg width="600" height="300" viewBox="0 0 600 300" fill="none" xmlns="http://www.w3.org/2000/svg">
<circle cx="151" cy="150" r="71" stroke="#1D9E75" stroke-width="10"/>
<rect x="147.999" y="202.69" width="114.335" height="5.30945" rx="2.65473" transform="rotate(-90 147.999 202.69)" fill="#1D9E75"/>
<rect width="51.7791" height="5.22956" rx="2.61478" transform="matrix(-0.642639 -0.766169 0.790343 -0.612665 180.85 207.422)" fill="#1D9E75"/>
<rect width="51.7791" height="5.22956" rx="2.61478" transform="matrix(0.642639 -0.766169 -0.790343 -0.612665 120.511 207.154)" fill="#1D9E75"/>
<rect width="40.3008" height="5.22956" rx="2.61478" transform="matrix(-0.642639 0.766169 0.790343 0.612665 173.438 102.254)" fill="#1D9E75"/>
<rect width="40.2958" height="5.22956" rx="2.61478" transform="matrix(-0.642639 -0.766169 0.790343 -0.612665 148.976 135.047)" fill="#1D9E75"/>
<path d="M247.608 119.312V116.72H274.296C280.568 116.72 285.368 118.224 288.696 121.232C292.088 124.176 293.784 128.112 293.784 133.04V136.016C293.784 139.92 292.696 143.248 290.52 146C288.408 148.688 285.368 150.544 281.4 151.568L293.688 174.224C294.52 175.76 295.128 176.848 295.512 177.488C295.896 178.064 296.248 178.448 296.568 178.64C296.952 178.768 297.464 178.864 298.104 178.928L302.424 179.504V182H287.928L272.76 152.432H263.352V174.224C263.352 176.464 263.448 177.776 263.64 178.16C263.832 178.544 264.44 178.8 265.464 178.928L270.744 179.504V182H247.608V179.504L252.888 178.928C253.912 178.8 254.52 178.544 254.712 178.16C254.904 177.776 255 176.464 255 174.224V124.496C255 122.256 254.904 120.944 254.712 120.56C254.52 120.176 253.912 119.92 252.888 119.792L247.608 119.312ZM274.296 119.792H263.352V149.36H274.296C277.624 149.36 280.216 148.304 282.072 146.192C283.992 144.016 284.952 140.752 284.952 136.4V132.656C284.952 128.304 283.992 125.072 282.072 122.96C280.216 120.848 277.624 119.792 274.296 119.792ZM350.145 157.232V159.152C350.145 166.384 348.321 172.176 344.673 176.528C341.089 180.816 335.969 182.96 329.313 182.96C322.721 182.96 317.601 180.816 313.953 176.528C310.369 172.176 308.577 166.384 308.577 159.152V157.232C308.577 150.064 310.369 144.336 313.953 140.048C317.537 135.696 322.657 133.52 329.313 133.52C335.969 133.52 341.089 135.696 344.673 140.048C348.321 144.336 350.145 150.064 350.145 157.232ZM341.505 155.312C341.505 148.656 340.449 143.888 338.337 141.008C336.289 138.064 333.281 136.592 329.313 136.592C325.409 136.592 322.401 138.064 320.289 141.008C318.241 143.888 317.217 148.656 317.217 155.312V161.072C317.217 167.792 318.241 172.624 320.289 175.568C322.401 178.448 325.409 179.888 329.313 179.888C333.281 179.888 336.289 178.448 338.337 175.568C340.449 172.624 341.505 167.792 341.505 161.072V155.312ZM403.583 157.232V159.152C403.583 166.384 401.759 172.176 398.111 176.528C394.527 180.816 389.407 182.96 382.751 182.96C376.159 182.96 371.039 180.816 367.391 176.528C363.807 172.176 362.015 166.384 362.015 159.152V157.232C362.015 150.064 363.807 144.336 367.391 140.048C370.975 135.696 376.095 133.52 382.751 133.52C389.407 133.52 394.527 135.696 398.111 140.048C401.759 144.336 403.583 150.064 403.583 157.232ZM394.943 155.312C394.943 148.656 393.887 143.888 391.775 141.008C389.727 138.064 386.719 136.592 382.751 136.592C378.847 136.592 375.839 138.064 373.727 141.008C371.679 143.888 370.655 148.656 370.655 155.312V161.072C370.655 167.792 371.679 172.624 373.727 175.568C375.839 178.448 378.847 179.888 382.751 179.888C386.719 179.888 389.727 178.448 391.775 175.568C393.887 172.624 394.943 167.792 394.943 161.072V155.312ZM444.54 172.208C443.58 175.92 442.076 178.64 440.028 180.368C437.98 182.096 435.356 182.96 432.156 182.96C429.084 182.96 426.588 182.288 424.668 180.944C422.748 179.536 421.34 177.712 420.444 175.472C419.548 173.232 419.1 170.896 419.1 168.464V142.256C419.1 140.016 419.004 138.704 418.812 138.32C418.684 137.936 418.076 137.68 416.988 137.552L411.708 137.072V134.48H419.1V121.904L426.972 120.272V134.48H442.62V137.552H426.972V169.232C426.972 173.264 427.516 176.048 428.604 177.584C429.756 179.12 431.26 179.888 433.116 179.888C434.972 179.888 436.38 179.184 437.34 177.776C438.364 176.368 439.1 174.064 439.548 170.864L444.54 172.208ZM449.313 113.552V110.96H464.577V174.224C464.577 176.464 464.673 177.776 464.865 178.16C465.057 178.544 465.665 178.8 466.689 178.928L471.969 179.504V182H449.313V179.504L454.593 178.928C455.617 178.8 456.225 178.544 456.417 178.16C456.609 177.776 456.705 176.464 456.705 174.224V118.736C456.705 116.496 456.609 115.184 456.417 114.8C456.225 114.416 455.617 114.16 454.593 114.032L449.313 113.552ZM500.599 186.8C499.191 190.704 497.655 193.872 495.991 196.304C494.327 198.8 492.343 200.592 490.039 201.68C487.735 202.832 484.855 203.408 481.399 203.408V195.728C486.007 195.728 489.495 194.992 491.863 193.52C494.231 192.112 496.119 189.456 497.527 185.552L498.775 182H495.991L481.879 141.68C481.239 139.824 480.759 138.736 480.439 138.416C480.119 138.032 479.447 137.776 478.423 137.648L473.527 137.072V134.48H495.415V137.072L490.519 137.648C489.623 137.712 489.111 137.936 488.983 138.32C488.855 138.704 489.111 139.824 489.751 141.68L501.271 174.896L512.887 141.584C513.463 139.728 513.687 138.64 513.559 138.32C513.495 138 512.983 137.776 512.023 137.648L507.031 137.072V134.48H524.599V137.072L519.703 137.648C518.743 137.776 518.103 138 517.783 138.32C517.463 138.64 516.983 139.728 516.343 141.584L500.599 186.8Z" fill="#1C1C1A"/>
</svg>
